<?xml version="1.0" standalone="no"?>
<!DOCTYPE svg PUBLIC "-//W3C//DTD SVG 20010904//EN"
 "http://www.w3.org/TR/2001/REC-SVG-20010904/DTD/svg10.dtd">
<svg version="1.0" xmlns="http://www.w3.org/2000/svg"
 width="196.000000pt" height="39.000000pt" viewBox="0 0 196.000000 39.000000"
 preserveAspectRatio="xMidYMid meet">

<g transform="translate(0.000000,39.000000) scale(0.100000,-0.100000)"
fill="#000000" stroke="none">
<path d="M637 370 c-13 -18 -16 -19 -27 -5 -17 21 -34 19 -25 -2 4 -10 12 -37
17 -60 12 -53 38 -59 38 -10 0 18 7 42 15 53 16 22 19 44 6 44 -6 0 -16 -9
-24 -20z"/>
<path d="M858 375 c-10 -18 -19 -101 -12 -118 11 -30 34 -20 34 15 l0 32 28
-27 c15 -15 31 -27 35 -27 14 0 6 28 -13 45 -15 14 -17 21 -9 31 18 22 2 47
-26 42 -13 -3 -26 0 -28 5 -2 7 -6 7 -9 2z m42 -34 c0 -6 -4 -13 -10 -16 -5
-3 -10 1 -10 9 0 9 5 16 10 16 6 0 10 -4 10 -9z"/>
<path d="M185 326 c-11 -55 2 -96 30 -96 32 0 56 10 49 21 -3 5 -14 9 -24 9
-15 0 -19 9 -22 47 -4 56 -24 68 -33 19z"/>
<path d="M409 323 l-13 -38 -10 28 c-10 28 -21 30 -88 11 -41 -12 -27 -88 15
-82 15 2 23 11 25 28 6 54 13 55 34 8 11 -27 24 -48 29 -48 7 0 16 26 33 103
9 41 -11 33 -25 -10z m-89 -43 c0 -11 -4 -20 -10 -20 -5 0 -10 9 -10 20 0 11
5 20 10 20 6 0 10 -9 10 -20z"/>
<path d="M796 320 c-7 -46 -26 -45 -26 2 0 27 -3 30 -22 24 -13 -3 -35 -6 -50
-6 -30 0 -44 -26 -33 -61 9 -28 47 -21 55 10 8 37 30 39 30 3 0 -31 19 -46 45
-36 17 7 39 69 31 89 -10 27 -23 16 -30 -25z m-88 -17 c-5 -25 -28 -28 -28 -4
0 12 6 21 16 21 9 0 14 -7 12 -17z"/>
<path d="M462 338 c-13 -13 -16 -46 -6 -72 11 -30 84 -12 84 21 0 14 -3 13
-26 -2 -29 -19 -47 -12 -20 8 21 15 18 50 -4 55 -9 1 -21 -3 -28 -10z m28 -17
c0 -6 -4 -13 -10 -16 -5 -3 -10 1 -10 9 0 9 5 16 10 16 6 0 10 -4 10 -9z"/>
<path d="M117 283 c-4 -3 -7 -25 -7 -47 0 -65 -13 -73 -44 -26 -14 22 -31 40
-36 40 -12 0 -23 -58 -24 -129 -1 -44 2 -56 15 -59 13 -2 19 8 25 45 l9 48 23
-37 c14 -23 31 -38 43 -38 18 0 19 8 19 105 0 96 -5 117 -23 98z"/>
<path d="M435 228 c-3 -8 -5 -50 -3 -94 2 -62 6 -79 18 -79 10 0 16 13 18 43
2 28 8 42 18 42 10 0 14 -12 14 -40 0 -29 4 -40 15 -40 23 0 27 21 18 96 -8
69 -29 97 -35 47 -4 -35 -32 -38 -36 -3 -5 32 -20 48 -27 28z"/>
<path d="M573 233 c-19 -7 -17 -147 2 -163 17 -14 62 -6 88 17 20 19 23 69 4
76 -9 3 -12 16 -9 35 3 24 0 30 -20 35 -26 8 -48 8 -65 0z m63 -24 c3 -6 0
-15 -7 -20 -22 -14 -29 -11 -29 11 0 21 24 27 36 9z m10 -74 c7 -18 -12 -45
-32 -45 -9 0 -14 11 -14 30 0 23 4 30 20 30 11 0 23 -7 26 -15z"/>
<path d="M701 222 c-17 -33 -13 -70 9 -82 28 -15 57 3 65 40 11 49 35 38 33
-16 -2 -54 18 -80 55 -70 24 6 41 36 49 91 6 37 -25 21 -36 -18 -14 -51 -31
-44 -31 13 0 44 0 45 -35 47 -19 1 -49 5 -67 9 -25 5 -33 2 -42 -14z m48 -16
c14 -16 4 -46 -14 -46 -19 0 -27 17 -20 40 7 23 18 25 34 6z"/>
<path d="M952 231 c-14 -8 -39 -147 -29 -158 14 -13 37 8 37 34 l1 28 32 -38
c18 -20 37 -37 44 -37 26 0 24 23 -7 61 l-31 39 20 26 c11 14 17 32 14 40 -6
15 -60 19 -81 5z m53 -22 c0 -7 -8 -15 -17 -17 -18 -3 -25 18 -11 32 10 10 28
1 28 -15z"/>
<path d="M270 204 c0 -17 22 -14 28 4 2 7 -3 12 -12 12 -9 0 -16 -7 -16 -16z"/>
<path d="M355 203 c-51 -13 -63 -65 -20 -85 16 -7 25 -19 25 -33 0 -30 -20
-45 -55 -42 -38 3 -42 -18 -6 -33 64 -26 100 18 104 127 2 71 -2 77 -48 66z
m15 -42 c0 -11 -5 -23 -11 -27 -15 -9 -33 12 -26 30 9 23 37 20 37 -3z"/>
<path d="M166 169 c-9 -49 -7 -87 6 -91 18 -6 68 3 68 13 0 5 -9 9 -20 9 -13
0 -20 7 -20 20 0 11 7 20 15 20 8 0 15 5 15 10 0 6 -7 10 -15 10 -8 0 -15 5
-15 10 0 6 9 10 20 10 11 0 20 5 20 10 0 6 -15 10 -34 10 -30 0 -34 -4 -40
-31z"/>
<path d="M267 163 c-4 -3 -7 -26 -7 -50 0 -31 4 -43 14 -43 22 0 25 11 19 58
-5 40 -12 50 -26 35z"/>
<path d="M705 98 c-15 -22 -14 -23 9 -26 13 -2 38 1 56 5 31 8 32 10 16 26
-24 24 -62 21 -81 -5z"/>
</g>
</svg>
